<svg class="svg-logo" xmlns="http://www.w3.org/2000/svg" xmlns:xlink="http://www.w3.org/1999/xlink" width="200.073" height="31.059" viewBox="0 0 200.073 31.059">
  <defs>
    <linearGradient id="svg-logo-symbol-gradient-1" x1="0.63" y1="0.808" x2="0.791" y2="0.041" gradientUnits="objectBoundingBox">
      <stop offset="0" stop-color="#0058cd"></stop>
      <stop offset="1" stop-color="#043576"></stop>
    </linearGradient>
    <linearGradient id="svg-logo-symbol-gradient-2" x1="0.562" y1="0.327" x2="-0.022" y2="0.113" gradientUnits="objectBoundingBox">
      <stop offset="0" stop-color="#0058cd"></stop>
      <stop offset="1" stop-color="#083872"></stop>
    </linearGradient>
    <linearGradient id="svg-logo-symbol-gradient-3" x1="0.637" y1="-0.037" x2="0.012" y2="0.922" gradientUnits="objectBoundingBox">
      <stop offset="0" stop-color="#0058cd"></stop>
      <stop offset="0.168" stop-color="#0058cd"></stop>
      <stop offset="1" stop-color="#70bfdb"></stop>
    </linearGradient>
  </defs>
  <path class="svg-logo-symbol" d="M173.032,108.809a5.29,5.29,0,0,1,.01,7.455l-.954.954a10.581,10.581,0,0,1-14.962,0l7.427,7.427.106.105A9.256,9.256,0,0,0,177.7,124.7l-.027-.028.029.026.863-.864a7.953,7.953,0,0,0-.7-10.524l-4.675-4.675Z" transform="translate(-139.358 -96.352)" fill="url(#svg-logo-symbol-gradient-1)"></path>
  <path class="svg-logo-symbol" d="M271.467,62.582h0l2.977,2.977,3.526,3.526,1.14,1.141a7.934,7.934,0,0,1,.006,11.216l5.605-5.605.034-.036a9.248,9.248,0,0,0,.018-13l-.268-.268a9.256,9.256,0,0,0-13.038.051" transform="translate(-240.77 -53.1)" fill="url(#svg-logo-symbol-gradient-2)"></path>
  <path class="svg-logo-symbol" d="M22.443,3.1l0,0-7.477,7.477h0L7.48,18.061,0,25.541l.134.134a10.58,10.58,0,0,0,14.83-.13h0l7.481-7.481h0l7.477-7.477.939-.939A9.256,9.256,0,0,1,43.9,9.595L37.407,3.1l0,0h0l-.038-.039A10.58,10.58,0,0,0,22.443,3.1" fill="url(#svg-logo-symbol-gradient-3)"></path>
  <path class="svg-logo-typo typo-p" d="M553.069,52.935a7.456,7.456,0,0,0-5.308-1.872H541.6V69.987h4.346V64.223h1.456a8.121,8.121,0,0,0,5.645-1.834,5.876,5.876,0,0,0,1.993-4.792,5.832,5.832,0,0,0-1.974-4.663m-3.586,6.977a5.012,5.012,0,0,1-3,.8l-.539.01V54.557l.54.011a5.149,5.149,0,0,1,3.018.775,2.539,2.539,0,0,1,1.048,2.323,2.474,2.474,0,0,1-1.072,2.245" transform="translate(-480.359 -45.289)" fill="#2e61e6"></path>
  <path class="svg-logo-typo typo-l" d="M733.092,51.062h-4.346V69.986H737.9V65.533h-4.808Z" transform="translate(-646.341 -45.287)" fill="#2e61e6"></path>
  <path class="svg-logo-typo typo-u" d="M1460.02,69.987h4.415V55.442h3.727V51.063h-11.834v4.379h3.692Z" transform="translate(-1291.648 -45.289)" fill="#2e61e6"></path>
  <path class="svg-logo-typo typo-x" d="M1121.615,69.967l-5.738-9.976,5.269-8.944h-4.786l-2.9,5.471-2.9-5.471h-4.8l5.185,9.011-5.616,9.909h4.722l3.38-6.329,3.377,6.329Z" transform="translate(-980.345 -45.275)" fill="#2e61e6"></path>
  <rect class="svg-logo-typo typo-i" width="4.344" height="18.924" transform="translate(150.658 5.773)" fill="#2e61e6"></rect>
  <path class="svg-logo-typo typo-t" d="M902.17,66.334A2.775,2.775,0,0,0,905,63.253V51.061h4.489V61.49c0,3.368-.378,5.652-1.505,7-1.258,1.5-2.988,2.16-5.813,2.16s-4.555-.661-5.813-2.16c-1.127-1.344-1.5-3.628-1.5-7V51.061h4.489V63.253a2.775,2.775,0,0,0,2.829,3.081" transform="translate(-793.663 -45.287)" fill="#2e61e6"></path>
  <path class="svg-logo-typo typo-y" d="M1635.217,51.031l-3.284,6.7-3.323-6.7h-4.859l5.982,10.8v8.128h4.416v-8.13l6.065-10.794Z" transform="translate(-1440.141 -45.26)" fill="#2e61e6"></path>
</svg>