<svg width="17" height="20" viewBox="0 0 17 20" fill="none" xmlns="http://www.w3.org/2000/svg">
<path d="M5.41994 3.07719L4.1807 1.00942C3.71599 0.248637 2.79624 -0.180523 1.93458 0.0730717C0.637255 0.463217 0.133814 1.93602 0.782478 3.01867L2.06044 5.13521C2.20567 5.35954 2.50579 5.43757 2.72847 5.30102L5.25535 3.75019C5.48771 3.60389 5.56516 3.30153 5.41994 3.07719Z" fill="#0F2640"/>
<path d="M15.9925 12.1578L13.272 8.45144C12.3232 7.16396 10.6773 6.55923 9.12828 6.97864C9.12828 6.96888 9.1186 6.96888 9.1186 6.95913L7.51146 4.29639C7.22102 3.83797 6.62076 3.69166 6.16573 3.97452L2.80623 6.03253C2.34151 6.30564 2.19629 6.92011 2.47706 7.38829L4.07451 10.051C4.07451 10.051 4.07451 10.0608 4.08419 10.0608C3.00954 11.2605 2.77718 13.0064 3.49362 14.4597L5.50738 18.5952C6.127 19.8729 7.58892 20.3606 8.82815 19.7169C8.92497 19.6681 8.95401 19.5511 8.89592 19.4535L7.3856 16.9371C7.17261 16.586 7.27911 16.1373 7.62764 15.913C7.97618 15.7081 8.42153 15.8154 8.6442 16.1568L10.1642 18.6732C10.2223 18.761 10.3385 18.7903 10.4256 18.7415L11.355 18.1758C11.4422 18.1173 11.4712 18.0002 11.4228 17.9125L9.90281 15.396C9.69949 15.0449 9.80599 14.5962 10.1448 14.3719C10.5031 14.1671 10.9484 14.2744 11.1614 14.6157L12.6814 17.1322C12.7395 17.22 12.8557 17.2492 12.9428 17.2004L13.8722 16.6347C13.9594 16.5762 13.9884 16.4592 13.94 16.3714L12.42 13.855C12.2167 13.5038 12.3232 13.0552 12.662 12.8308C13.0203 12.626 13.4656 12.7333 13.6786 13.0747L15.2083 15.5813C15.2664 15.6691 15.3826 15.6984 15.4697 15.6399C16.5928 14.8303 16.8445 13.3087 15.9925 12.1578Z" fill="#0F2640"/>
</svg>
